<svg width="700" height="170" viewBox="0 0 700 170" fill="none" xmlns="http://www.w3.org/2000/svg">
  <g fill="#0B2B4D">
    <path d="M39 63.5C39 58.2533 43.2533 54 48.5 54H117C120.314 54 123 56.6863 123 60V75.5C123 78.8137 120.314 81.5 117 81.5H111V84C111 87.3137 108.314 90 105 90H78.5C75.1863 90 72.5 87.3137 72.5 84V81.5H48.5C43.2533 81.5 39 77.2467 39 72V63.5Z"/>
    <path d="M38 79H124V121.5C124 128.956 117.956 135 110.5 135H51.5C44.0442 135 38 128.956 38 121.5V79Z"/>
    <path d="M73 79H89V135H73V79Z"/>
    <path d="M70.1881 54.2615C63.3998 47.1514 53.148 41.1579 44.9278 42.8828C41.7535 43.5487 39.5729 45.4867 39.0625 48.3567C38.5193 51.4105 39.885 54.3764 42.9539 56.8251C49.1867 61.7981 61.4475 62.7715 76.5 61.1667L81.807 60.6011L78.1438 56.7198C75.6206 54.0463 72.9465 51.3849 70.1881 54.2615ZM67.0172 57.3364C56.0245 58.0207 47.8364 56.7612 44.8242 54.3572C43.5311 53.3257 42.9786 52.3045 43.1241 51.4863C43.2406 50.8315 43.8434 50.2288 45.9532 49.7861C50.3022 48.8734 57.6449 51.7861 64.7677 57.2104L67.0172 57.3364Z"/>
    <path d="M91.812 54.2615C98.6003 47.1514 108.852 41.1579 117.072 42.8828C120.247 43.5487 122.427 45.4867 122.938 48.3567C123.481 51.4105 122.115 54.3764 119.046 56.8251C112.813 61.7981 100.552 62.7715 85.4998 61.1667L80.1928 60.6011L83.856 56.7198C86.3792 54.0463 89.0533 51.3849 91.812 54.2615ZM94.9828 57.3364C105.976 58.0207 114.164 56.7612 117.176 54.3572C118.469 53.3257 119.021 52.3045 118.876 51.4863C118.759 50.8315 118.157 50.2288 116.047 49.7861C111.698 48.8734 104.355 51.7861 97.2324 57.2104L94.9828 57.3364Z"/>
  </g>
  <text x="138" y="118" fill="#0B2B4D" font-family="Arial, Helvetica, sans-serif" font-size="82" font-weight="800" letter-spacing="-3">
    GiftClarity
  </text>
</svg>
